<svg t="1586612355587" class="icon" viewBox="0 0 1024 1024" version="1.1" xmlns="http://www.w3.org/2000/svg" p-id="3120" width="240" height="240"><path d="M28.564741 966.837888L297.478947 703.043674l-15.283558-19.02803a281.446723 281.446723 0 0 1-62.127664-176.983603c0-158.719751 131.744271-287.865818 293.597152-287.865817a293.979241 293.979241 0 0 1 180.804492 61.134232l18.645941 14.213709 151.077972-148.403349-21.702652-19.180866a511.999198 511.999198 0 0 0-631.669458-33.394574l-16.506243 11.462668 8.100286 22.925338-66.40706 65.184375-24.22444-8.176704-11.768339 15.283559A489.914456 489.914456 0 0 0 61.347973 734.222133c6.57193 13.755202 0 81.079276-13.602366 144.123953zM963.842081 291.533871c-6.57193-13.83162 0-81.155694 14.137292-144.123953l19.71579-88.338966-269.907637 263.030036 15.283558 19.02803a281.675976 281.675976 0 0 1 61.134233 177.212856c-0.611342 158.41408-132.202778 286.795968-293.597152 286.795969h-1.146267A293.826405 293.826405 0 0 1 328.810241 743.239432l-18.493105-14.290127-151.612897 147.792008 21.626235 19.257283a509.248157 509.248157 0 0 0 336.238279 127.999799h1.986862a507.796219 507.796219 0 0 0 292.98581-92.159855l16.58266-11.615505-7.641779-22.925337 66.636314-65.03154 24.224439 8.32954 11.76834-15.283559a489.990874 489.990874 0 0 0 40.654265-533.625432z" p-id="3121"></path><path d="M495.706696 442.306173V325.998295A183.402698 183.402698 0 0 0 464.75749 687.760116c10.010731 2.445369 30.949205 37.597553 30.949206 37.597553V575.884471a68.011834 68.011834 0 0 1 0-133.578298zM544.919753 576.572231l0.840596 116.307877a183.402698 183.402698 0 0 0 28.351-361.608985c-10.087148-2.368952-31.331294-37.444717-31.331294-37.444718L543.926322 443.223186a67.935416 67.935416 0 0 1 0.993431 133.578298z" p-id="3122"></path></svg>